PathFileType	4	(X/Y/Z)	./resultDataOpenSim/trcMotMarkerGrf/sub10/qtm-01-08.trc
DataRate	CameraRate	NumFrames	NumMarkers	Units	OrigDataRate	OrigDataStartFrame	OrigNumFrames
250.000000	250.000000	10	24	m	250.000000	272	435
Frame#	Time	L.Toe.Tip			R.Toe.Tip			L.Ankle.Lat			R.Ankle.Lat			L.Ankle.Med			R.Ankle.Med			L.Heel			R.Heel			L.Knee.Lat			R.Knee.Lat			L.Knee.Med			R.Knee.Med			L.Thigh.Upper			R.Thigh.Upper			L.ASIS			R.ASIS			V.Sacral			L.Acromium			R.Acromium			C7			L.Elbow			R.Elbow			L.Wrist.Lat			R.Wrist.Lat
		X1	Y1	Z1	X2	Y2	Z2	X3	Y3	Z3	X4	Y4	Z4	X5	Y5	Z5	X6	Y6	Z6	X7	Y7	Z7	X8	Y8	Z8	X9	Y9	Z9	X10	Y10	Z10	X11	Y11	Z11	X12	Y12	Z12	X13	Y13	Z13	X14	Y14	Z14	X15	Y15	Z15	X16	Y16	Z16	X17	Y17	Z17	X18	Y18	Z18	X19	Y19	Z19	X20	Y20	Z20	X21	Y21	Z21	X22	Y22	Z22	X23	Y23	Z23	X24	Y24	Z24

272	1.084	0.036979255	0.041596677	-0.17533351	0.82991088	0.092909533	-0.007861351	-0.073195949	0.11459394	-0.20331222	0.69356195	0.057875104	0.020831937	-0.054780948	0.1320935	-0.12005244	0.70808145	0.093114464	-0.060309494	-0.14430398	0.11770863	-0.16098728	0.66012685	0.01854479	-0.029110576	0.15722706	0.42588615	-0.24167458	0.57921805	0.44631403	0.041173166	0.16871616	0.39900205	-0.12088929	0.59640052	0.45339961	-0.087305362	0.28025179	0.79973536	-0.29361702	0.40213973	0.81344386	0.077625503	0.3691235	0.89823111	-0.25555019	0.44882235	0.90568827	-0.014806559	0.21901046	0.90480211	-0.066660697	0.34358452	1.3694171	-0.26134054	0.30864064	1.353841	0.066346389	0.24143001	1.3917428	-0.1120158	0.36987504	1.0180347	-0.30899402	0.14313621	1.055533	0.084461485	0.60481984	0.94109943	-0.3006766	0.15951142	0.82706195	0.16642676
273	1.088	0.037692598	0.041765089	-0.17518808	0.83239441	0.089260186	-0.0084320858	-0.070385957	0.11760658	-0.20358025	0.69581563	0.056223854	0.020385942	-0.051488373	0.13474162	-0.12049628	0.7107755	0.090906232	-0.060816849	-0.14132685	0.12222203	-0.16142879	0.66113504	0.017983593	-0.029372091	0.16403226	0.42591092	-0.24169879	0.58667709	0.44574784	0.041184467	0.17556542	0.39888943	-0.12094975	0.60474288	0.4535676	-0.086955795	0.28820589	0.79906635	-0.29287317	0.40997997	0.81362577	0.078265824	0.37738745	0.89758758	-0.25485644	0.45698115	0.90593598	-0.014173699	0.22731674	0.90454073	-0.066916035	0.35022416	1.3694584	-0.26043807	0.31571659	1.3536064	0.067105525	0.24832309	1.3912642	-0.11106181	0.37651633	1.0182427	-0.30751804	0.15011131	1.055609	0.084261468	0.61156761	0.94121919	-0.30010587	0.16523066	0.82725745	0.16683788
274	1.092	0.038418734	0.041892761	-0.17504972	0.83504682	0.085051091	-0.0092293526	-0.067370967	0.12071696	-0.20385637	0.69810086	0.054976656	0.019923369	-0.047911859	0.13742427	-0.12097008	0.71356543	0.088956052	-0.061345049	-0.13800319	0.12687571	-0.16176439	0.6619357	0.017850663	-0.029551904	0.17101682	0.42597107	-0.24177336	0.59387768	0.44509987	0.041192821	0.18264402	0.39879752	-0.12110043	0.61287803	0.45361448	-0.086628103	0.29634208	0.79841509	-0.29215421	0.41792195	0.81383653	0.078949368	0.38587806	0.8969621	-0.25408829	0.46512519	0.90621507	-0.013485077	0.2350582	0.90462287	-0.06644551	0.35688512	1.3695636	-0.2595004	0.32282226	1.3534269	0.067896557	0.25527506	1.3907931	-0.11019651	0.38306456	1.0184847	-0.30603803	0.1571707	1.0557097	0.084063491	0.61821837	0.94131287	-0.29958392	0.1712656	0.8274747	0.16732004
275	1.096	0.039139183	0.041963621	-0.17493116	0.83799166	0.080029835	-0.010230244	-0.06414754	0.12391996	-0.2041614	0.70051303	0.054234959	0.019524518	-0.044063107	0.14011814	-0.12147739	0.71656541	0.087415039	-0.061833154	-0.13430223	0.1316566	-0.16196703	0.6625876	0.018278078	-0.029560853	0.17827471	0.42605815	-0.2418843	0.60077562	0.44438959	0.041258612	0.18995316	0.39868759	-0.12136264	0.62073218	0.45353943	-0.086393115	0.30465639	0.79778153	-0.29144294	0.42596986	0.81408317	0.079714342	0.39456269	0.89634565	-0.25325491	0.47317779	0.90650809	-0.012750548	0.24349477	0.90472097	-0.065968675	0.36357126	1.3697265	-0.2585388	0.3299695	1.3533019	0.068725473	0.26226253	1.3902933	-0.10936944	0.38953014	1.0187371	-0.30455873	0.16430204	1.055828	0.083869771	0.6247742	0.94137775	-0.29910767	0.1776049	0.82769976	0.16783874
276	1.1	0.039896204	0.041994681	-0.17481366	0.84121247	0.0743222	-0.011351506	-0.060682052	0.12719808	-0.20449169	0.70312313	0.053912903	0.019328323	-0.039932665	0.14280342	-0.1220238	0.71977608	0.086296006	-0.062195491	-0.1302124	0.13654324	-0.16206687	0.66323392	0.019223136	-0.029361731	0.18585526	0.42615002	-0.24200385	0.60737687	0.44367495	0.041430611	0.19750607	0.39852292	-0.12174415	0.62822346	0.45337204	-0.086302455	0.31314836	0.7971565	-0.29072927	0.43413331	0.81437662	0.080594822	0.40341683	0.8957336	-0.25234435	0.48110697	0.90680121	-0.011970563	0.25259113	0.90468968	-0.065907667	0.37029055	1.3699456	-0.25756025	0.33716315	1.3532243	0.069580238	0.26924769	1.3897945	-0.10849068	0.39589314	1.0189784	-0.30305625	0.17149344	1.0559452	0.083691867	0.63123491	0.94141003	-0.29867084	0.18413609	0.82792055	0.16835884
277	1.104	0.0407586	0.042022816	-0.17467518	0.84451054	0.068513499	-0.012495734	-0.056925856	0.1305317	-0.20483487	0.70587984	0.053776118	0.019444465	-0.035479574	0.14546411	-0.12261763	0.72301351	0.085468173	-0.062351846	-0.12571484	0.14152165	-0.16210327	0.66404197	0.020443092	-0.028972242	0.19371848	0.42621533	-0.24209371	0.61381737	0.44307693	0.041680849	0.20536783	0.39831579	-0.12224476	0.63531924	0.45317639	-0.086363212	0.32181691	0.79653121	-0.29000971	0.44241736	0.81474058	0.081598367	0.41242804	0.89512762	-0.25131152	0.48900132	0.90709082	-0.011146468	0.26147702	0.90458685	-0.066213034	0.37705341	1.3702284	-0.2565747	0.34439165	1.3531867	0.07044787	0.27620003	1.3893601	-0.10747961	0.40212481	1.0191954	-0.30149835	0.17876786	1.0560356	0.08354975	0.63760302	0.94140452	-0.29827428	0.19075444	0.82813128	0.16886895
278	1.108	0.041758419	0.042072007	-0.17452407	0.84759207	0.063314896	-0.013644536	-0.052833383	0.13390481	-0.2051779	0.70861565	0.053626457	0.0198365	-0.030642318	0.14808766	-0.12325536	0.72600268	0.084772395	-0.062274838	-0.12077668	0.14658315	-0.16209062	0.66506555	0.02169539	-0.028407346	0.20184931	0.42622843	-0.24215466	0.62031564	0.44276184	0.041923838	0.21360798	0.39809556	-0.12285619	0.64209645	0.45304456	-0.086532534	0.33065947	0.79589822	-0.28928255	0.45081375	0.81521288	0.082705141	0.42158336	0.89453327	-0.25011831	0.49704157	0.90738692	-0.010306947	0.26972493	0.90456996	-0.066490244	0.383868	1.3705859	-0.25559829	0.35164565	1.3531897	0.071328493	0.28312979	1.3890417	-0.10634616	0.40824231	1.0194017	-0.29991856	0.18618429	1.0560863	0.08346512	0.64388295	0.94135767	-0.2979261	0.19738177	0.82832989	0.16935833
279	1.112	0.042888163	0.042137773	-0.17438764	0.85023033	0.05906026	-0.014865611	-0.048372337	0.13730464	-0.20550744	0.71119564	0.053413418	0.020357878	-0.025363564	0.15065686	-0.12392137	0.72856988	0.08412397	-0.06201274	-0.11536096	0.15170939	-0.16201965	0.66623868	0.022874615	-0.02767896	0.21035017	0.42618567	-0.24225363	0.62703219	0.44287007	0.042120386	0.22221487	0.39782203	-0.12352871	0.64868129	0.45306525	-0.086715073	0.33967111	0.7952419	-0.28854736	0.45930375	0.81583202	0.083876153	0.43084164	0.89395232	-0.24880012	0.50531783	0.90771875	-0.0094719221	0.2776312	0.90473286	-0.066434235	0.39073776	1.3710209	-0.25464422	0.35893395	1.3532377	0.072225389	0.29008694	1.388857	-0.10517209	0.41431326	1.0196384	-0.29841222	0.19379363	1.05611	0.083456169	0.65007858	0.941272	-0.29763427	0.20394051	0.8285092	0.1698039
280	1.116	0.044142217	0.042196935	-0.17428736	0.85237358	0.055555177	-0.016191967	-0.043524876	0.1407124	-0.20581502	0.71361832	0.053176724	0.020888652	-0.019609363	0.15314331	-0.12460634	0.73074458	0.083518126	-0.061669929	-0.10943396	0.1568671	-0.16187259	0.66746283	0.023981883	-0.026840632	0.21930206	0.42609962	-0.24242412	0.6340233	0.4434442	0.04230383	0.23112242	0.39739319	-0.12417787	0.65508851	0.45327715	-0.086763972	0.34883666	0.7945415	-0.28780225	0.46786906	0.81662013	0.085064042	0.44014454	0.89338052	-0.24745319	0.51366238	0.90813754	-0.0085678216	0.28561341	0.90506982	-0.066027068	0.39766271	1.3715244	-0.25371239	0.36627668	1.3533305	0.073136117	0.29712281	1.3887949	-0.10401949	0.42039114	1.0199403	-0.29704626	0.2015987	1.056127	0.083530269	0.65618973	0.94115182	-0.29739866	0.21039896	0.82866187	0.17019244
281	1.12	0.045539921	0.042220673	-0.174235	0.85415402	0.052418424	-0.017525054	-0.038281653	0.14409592	-0.20610631	0.71593358	0.052953025	0.021368405	-0.013368241	0.15550585	-0.12531666	0.73268716	0.08297649	-0.061358962	-0.10296616	0.16201494	-0.16163486	0.66865245	0.025033074	-0.025984598	0.22862631	0.42596912	-0.24259721	0.64128727	0.44441922	0.042512809	0.24031291	0.39674606	-0.12475879	0.66119089	0.4536604	-0.086532476	0.3581265	0.79378052	-0.28704125	0.47649464	0.81758301	0.08622978	0.44945525	0.89281447	-0.24614322	0.52178886	0.90868765	-0.0074824852	0.29393198	0.90555234	-0.065291762	0.40464212	1.3720839	-0.2527903	0.37368544	1.3534644	0.074056437	0.30426143	1.3888314	-0.10290165	0.42647705	1.0203146	-0.29582365	0.20955084	1.0561464	0.083677181	0.66220851	0.94099206	-0.29721135	0.21686275	0.82880092	0.17055024
